<?xml version="1.0" encoding="UTF-8"?>
<svg id="Ebene_1" data-name="Ebene 1" xmlns="http://www.w3.org/2000/svg" viewBox="0 0 92.96 100.38">
  <path d="M15.22,100.38c9.54,0,23.05-25.36,29.31-26.56,9.25-1.77,20.85,24,27.93,23.02s13.87-9.34,13.77-17.31c-.17-13.51-19.84-16.59-21.25-28.72-.98-8.46,29.11-26.16,27.93-36.79-.74-6.62-7.63-14.77-12.79-13.97-12.59,1.97-24,33.64-34.03,33.05-10.75-.63-21.44-22.03-33.25-25.38C9.39,6.74-.97,17.92.07,25.63c1.38,10.13,24.59,22.23,25.57,28.33,2.02,12.55-23.41,22.23-22.82,31.67.44,7.02,7.97,14.75,12.39,14.75Z"/>
</svg>