<svg width="133" height="133" viewBox="0 0 133 133" fill="none" xmlns="http://www.w3.org/2000/svg">
<g filter="url(#filter0_ii_194_24786)">
<path d="M102.93 54.7163C112.655 69.6911 108.794 89.8966 93.9143 99.7958L93.9157 99.7961C90.3127 102.205 86.2627 103.868 82.0057 104.683C77.7488 105.499 73.3714 105.452 69.133 104.545L69.1195 104.542L69.1068 104.539C63.1728 103.102 55.3592 99.1665 49.1002 95.6461C45.9548 93.8769 43.1737 92.1961 41.179 90.9579C40.1817 90.3387 39.3798 89.8299 38.8271 89.4752C38.5508 89.298 38.3364 89.1586 38.1909 89.064C38.1181 89.0166 38.0624 88.9799 38.0248 88.9552C38.0114 88.9465 38 88.9397 37.9912 88.934C37.1764 88.507 36.4525 87.9255 35.863 87.2187C35.2561 86.4908 34.8033 85.647 34.5321 84.7388C34.2609 83.8308 34.1766 82.8773 34.2849 81.9359C34.3797 81.112 34.6201 80.3122 34.9938 79.574L35.162 79.261C37.0403 75.938 41.255 74.8884 44.5672 76.5789L58.6142 83.7504L58.6207 83.7532L58.6277 83.7568C58.8514 83.8751 59.1053 83.9244 59.3571 83.8991C59.6088 83.8737 59.8475 83.7748 60.0431 83.6143L60.0836 83.5798C60.4176 83.2501 60.632 82.8179 60.6873 82.3506C60.7451 81.8609 60.6265 81.3664 60.3525 80.9564L60.3442 80.9455L60.345 80.945L35.8894 43.2867C35.3724 42.4922 35.0215 41.6013 34.8592 40.6674C34.6968 39.7333 34.726 38.7758 34.9448 37.8533C35.1637 36.9308 35.5681 36.062 36.1327 35.3003C36.6975 34.5385 37.4115 33.8984 38.2308 33.4208L38.2305 33.4222C41.5132 31.5016 45.6901 32.6735 47.7186 35.7969L62.3372 58.3075C62.486 58.5378 62.6802 58.7359 62.9085 58.8878C63.1367 59.0397 63.3945 59.1427 63.6643 59.1911C63.934 59.2393 64.2109 59.2315 64.4775 59.1684C64.742 59.1057 64.9904 58.9895 65.2086 58.8275C65.6146 58.5073 65.8864 58.0469 65.9688 57.5362C66.0518 57.0213 65.937 56.4937 65.6472 56.0601L65.6389 56.0492L65.6397 56.0487L62.4229 51.0953C61.9059 50.3008 61.555 49.4099 61.3927 48.476C61.2303 47.5419 61.2595 46.5844 61.4783 45.6619C61.6972 44.7394 62.1016 43.8706 62.6662 43.1089C63.231 42.3471 63.945 41.707 64.7643 41.2294L64.7634 41.23C68.0461 39.3094 72.2236 40.4821 74.2521 43.6055L79.0671 51.02C79.216 51.2503 79.4102 51.4484 79.6385 51.6003C79.8667 51.7522 80.1245 51.8552 80.3943 51.9036C80.664 51.9519 80.9408 51.944 81.2075 51.8809C81.4719 51.8182 81.7204 51.702 81.9386 51.54C82.3446 51.2198 82.6164 50.7594 82.6988 50.2487C82.7818 49.7338 82.667 49.2062 82.3771 48.7726L82.3689 48.7617L82.3697 48.7612L80.8831 46.472C78.8527 43.3455 79.4912 39.0644 82.5699 36.8391L82.5715 36.838C83.3398 36.2849 84.2123 35.8924 85.1362 35.686C86.0602 35.4798 87.0165 35.4637 87.9471 35.6376C88.8778 35.8114 89.7639 36.1719 90.5511 36.698C91.3384 37.224 92.011 37.9046 92.5277 38.698L102.93 54.7163Z" fill="#CAFBE4" stroke="#CAFBE4" stroke-width="2"/>
</g>
<defs>
<filter id="filter0_ii_194_24786" x="0" y="-3.99999" width="132.798" height="140.798" filterUnits="userSpaceOnUse" color-interpolation-filters="sRGB">
<feFlood flood-opacity="0" result="BackgroundImageFix"/>
<feBlend mode="normal" in="SourceGraphic" in2="BackgroundImageFix" result="shape"/>
<feColorMatrix in="SourceAlpha" type="matrix" values="0 0 0 0 0 0 0 0 0 0 0 0 0 0 0 0 0 0 127 0" result="hardAlpha"/>
<feOffset dy="-4"/>
<feGaussianBlur stdDeviation="2"/>
<feComposite in2="hardAlpha" operator="arithmetic" k2="-1" k3="1"/>
<feColorMatrix type="matrix" values="0 0 0 0 0 0 0 0 0 0.223529 0 0 0 0 0.188235 0 0 0 0.3 0"/>
<feBlend mode="normal" in2="shape" result="effect1_innerShadow_194_24786"/>
<feColorMatrix in="SourceAlpha" type="matrix" values="0 0 0 0 0 0 0 0 0 0 0 0 0 0 0 0 0 0 127 0" result="hardAlpha"/>
<feOffset dy="4"/>
<feGaussianBlur stdDeviation="2"/>
<feComposite in2="hardAlpha" operator="arithmetic" k2="-1" k3="1"/>
<feColorMatrix type="matrix" values="0 0 0 0 1 0 0 0 0 1 0 0 0 0 1 0 0 0 0.25 0"/>
<feBlend mode="normal" in2="effect1_innerShadow_194_24786" result="effect2_innerShadow_194_24786"/>
</filter>
</defs>
</svg>
