<svg width="50" height="48" viewBox="0 0 50 48" fill="none" xmlns="http://www.w3.org/2000/svg">
<path d="M20.2129 32.1202C20.5782 32.1202 21.2652 32.2509 22.3554 32.6133L22.3633 32.6153C23.4796 32.9783 24.7603 33.4283 26.206 33.9659L26.2119 33.9688C27.6825 34.5065 29.2539 35.106 30.9248 35.7676L30.9384 35.7735C32.6367 36.421 34.3357 37.0192 36.0351 37.5674C36.1298 37.598 36.225 37.6263 36.3193 37.6563L27.3759 46.6016C25.5114 48.4657 22.4885 48.4657 20.624 46.6016L16.3496 42.3272C17.1499 41.4698 17.5754 40.3423 17.6972 39.0547L17.6982 39.045C17.793 37.9344 17.9459 36.9317 18.1533 36.0352L18.1543 36.0284C18.3622 35.1068 18.6097 34.3413 18.8877 33.7198C19.1946 33.0892 19.4918 32.6658 19.7588 32.3995C20.031 32.128 20.178 32.1202 20.2129 32.1202Z" fill="#CAFBE4"/>
<path d="M33.3994 4.59184C33.9098 4.61622 34.392 4.72612 34.8457 4.91996C35.3643 5.11698 35.8092 5.40018 36.1797 5.76957C36.5747 6.13896 36.8832 6.58254 37.1054 7.09965C37.3276 7.59202 37.4394 8.12134 37.4394 8.68754C37.4394 9.44865 37.2343 10.1698 36.831 10.8536L36.832 10.8545C36.7265 11.0334 36.6086 11.2103 36.4756 11.3838C35.8581 12.2212 35.0676 13.0342 34.1045 13.8223C33.1661 14.6103 32.1415 15.3746 31.0302 16.1133L30.6172 16.3907C29.661 17.0398 28.7616 17.6983 27.9189 18.3662C26.9805 19.1296 26.1899 19.9054 25.5478 20.6934C24.9304 21.4815 24.6211 22.3195 24.6211 23.2061C24.6213 23.9447 25.1407 24.6583 26.1777 25.3477L26.3779 25.4776C27.4038 26.1239 28.8314 26.7707 30.6601 27.417C32.611 28.1065 34.9696 28.8209 37.7353 29.5596C40.1409 30.1807 42.8086 30.8377 45.7373 31.5332C46.1761 31.6379 46.6206 31.7447 47.0713 31.8506L47.3847 31.9424C48.9041 32.4286 49.6637 33.2724 49.664 34.4727C49.664 34.6573 49.647 34.8403 49.6123 35.0215C49.5892 35.1424 49.5581 35.2625 49.5195 35.3819C49.4809 35.5012 49.4339 35.6195 49.3799 35.7373C49.3529 35.796 49.3247 35.8548 49.2939 35.9131C49.2106 36.0886 49.1144 36.2574 49.0068 36.419C48.935 36.5268 48.858 36.6318 48.7754 36.7334C48.7342 36.7841 48.6913 36.8337 48.6474 36.8829C48.5594 36.9814 48.466 37.0775 48.3672 37.17C48.1203 37.3853 47.8496 37.5768 47.5547 37.7442C47.4364 37.8112 47.3144 37.8743 47.1884 37.9336C47.1256 37.9632 47.0618 37.9919 46.997 38.0196C46.9354 38.0472 46.8736 38.0735 46.8115 38.0977C46.5631 38.1947 46.3112 38.263 46.0566 38.3047C45.8656 38.3359 45.6729 38.3516 45.4785 38.3516L45.0068 38.3428C44.9182 38.3396 44.8286 38.3341 44.7383 38.3291C43.8378 38.2793 42.8547 38.1424 41.789 37.9161L41.2549 37.7979C39.983 37.4959 38.6707 37.1331 37.3164 36.7159C37.014 36.6227 36.7088 36.5296 36.4023 36.4307C34.7231 35.8889 33.0435 35.2975 31.3642 34.6573C30.1047 34.1585 28.9004 33.6941 27.7519 33.2647L26.622 32.8467C25.1651 32.305 23.8683 31.8499 22.7324 31.4805C21.7599 31.1572 20.9949 30.976 20.4384 30.9356L20.2129 30.9268C19.7684 30.9269 19.3357 31.1362 18.916 31.5547C18.521 31.9487 18.1512 32.503 17.8056 33.2168C17.4846 33.9309 17.2125 34.7808 16.9902 35.7657L16.9091 36.1299C16.7282 36.9918 16.5952 37.9297 16.5088 38.9424C16.4084 40.0028 16.0801 40.8443 15.5234 41.4659L15.5058 41.4834C15.3818 41.6199 15.2469 41.7464 15.1006 41.8614C14.3103 42.4769 13.2112 42.7852 11.8037 42.7852L11.5381 42.7764C11.4826 42.773 11.4284 42.7664 11.375 42.7608C10.1813 42.6359 9.48464 41.9683 9.28512 40.753C9.00731 39.2016 8.68082 37.6291 8.30563 36.0362C8.18057 35.5051 8.04988 34.9713 7.91403 34.4356C7.39544 32.2931 6.81488 30.1503 6.17282 28.0079C5.55547 25.8655 4.87651 23.7474 4.13571 21.6543C3.63264 20.1839 3.10893 18.7565 2.5693 17.3711C2.5426 17.3024 2.51602 17.2336 2.48923 17.1651C2.46418 17.1012 2.43915 17.0374 2.41403 16.9737C2.23655 16.5222 2.05785 16.075 1.87595 15.6329C1.67842 15.2143 1.5304 14.8321 1.43161 14.4873C1.35761 14.1183 1.32033 13.749 1.32028 13.3799C1.32028 13.0999 1.39577 12.8382 1.54684 12.5957L1.61618 12.4932C1.81373 12.1977 2.08591 11.9385 2.43161 11.7168C2.7773 11.4953 3.17272 11.3233 3.61716 11.2002C4.08629 11.0771 4.56767 11.0157 5.06149 11.0157C6.07406 11.0157 6.87697 11.2249 7.4697 11.6436C7.95168 11.9841 8.44111 12.4637 8.93942 13.0811C9.05385 13.2228 9.16983 13.3701 9.28512 13.5264C9.58143 13.9204 9.86507 14.4505 10.1367 15.1153C10.4083 15.7555 10.6681 16.4459 10.915 17.1846L11.2851 18.3018C11.4086 18.6773 11.5328 19.0559 11.6562 19.4375C11.9031 20.1762 12.1371 20.8542 12.3593 21.4698C12.6062 22.0606 12.8413 22.5534 13.0634 22.9473C13.2795 23.2704 13.4864 23.4519 13.6836 23.4922L13.7675 23.501C13.9404 23.5009 14.085 23.4349 14.2011 23.3028L14.249 23.2422C14.3971 23.0699 14.5701 22.8113 14.7675 22.4668C16.0517 19.8073 17.4592 17.3812 18.9902 15.1895C20.5214 12.973 22.09 11.0887 23.6953 9.53715C25.3006 7.96098 26.9064 6.74189 28.5117 5.87992C30.1414 5.01812 31.6971 4.58702 33.1787 4.58695C33.2528 4.58695 33.3264 4.58838 33.3994 4.59184Z" fill="#CEFE6B"/>
<path d="M2.21188 19.8077C2.4802 20.5406 2.7471 21.2839 3.00583 22.0401L3.00778 22.0459L3.01071 22.0518C3.74367 24.1227 4.41546 26.219 5.02634 28.3389L5.02731 28.3448L5.02927 28.3506C5.39882 29.5838 5.74494 30.818 6.07321 32.0508L1.39841 27.376C-0.466174 25.5114 -0.466097 22.4877 1.39841 20.6231L2.21188 19.8077Z" fill="#CAFBE4"/>
<path d="M46.6015 20.6231C48.466 22.4877 48.4661 25.5114 46.6015 27.376L44.0703 29.9053C41.9047 29.3822 39.8949 28.8844 38.0429 28.4063C35.2971 27.6728 32.9701 26.968 31.0576 26.292C29.1473 25.6169 27.7581 24.9656 26.8388 24.3545C25.9057 23.7342 25.8156 23.3321 25.8154 23.2061C25.8154 22.623 26.0106 22.0414 26.4814 21.4375C27.0622 20.7265 27.7893 20.01 28.6718 19.292C29.6035 18.5541 30.61 17.8254 31.6914 17.1065C32.8364 16.3453 33.8978 15.5553 34.873 14.7364C35.8935 13.9001 36.7524 13.0205 37.4365 12.0928C37.5294 11.9709 37.6156 11.8462 37.6982 11.7207L46.6015 20.6231Z" fill="#CAFBE4"/>
<path d="M20.624 1.39848C22.4886 -0.466165 25.5113 -0.466153 27.3759 1.39848L29.9375 3.95902C29.2786 4.18386 28.6167 4.47433 27.9531 4.82523L27.9463 4.82816C26.2238 5.75309 24.5317 7.04447 22.8662 8.67875C21.1941 10.2949 19.5759 12.2423 18.0088 14.5108C16.4774 16.7035 15.0713 19.1172 13.789 21.7491C13.6883 21.5368 13.5828 21.2997 13.4726 21.0371C13.3664 20.7426 13.2568 20.4327 13.1445 20.1084L12.7881 19.0596C12.5411 18.2964 12.2939 17.5447 12.0468 16.8057C11.793 16.0462 11.5241 15.3322 11.2412 14.6641C10.9468 13.9435 10.6171 13.3134 10.2382 12.8096C10.0897 12.6085 9.93961 12.4155 9.78805 12.2315L20.624 1.39848Z" fill="#CAFBE4"/>
</svg>
